<svg height="314pt" viewBox="0 -48 314.02667 314" width="314pt" xmlns="http://www.w3.org/2000/svg"><g fill="#0e65e5"><path d="m61.441406 95.585938h-54.613281v20.480468c0 15.082032 12.222656 27.308594 27.304687 27.308594 15.082032 0 27.308594-12.226562 27.308594-27.308594zm0 0" fill-rule="evenodd"/><path d="m34.132812 150.199219c-18.820312 0-34.132812-15.3125-34.132812-34.132813v-20.480468c0-3.769532 3.054688-6.824219 6.828125-6.824219h54.613281c3.773438 0 6.824219 3.054687 6.824219 6.824219v20.480468c0 18.820313-15.3125 34.132813-34.132813 34.132813zm-20.480468-47.785157v13.652344c0 11.292969 9.1875 20.480469 20.480468 20.480469 11.292969 0 20.480469-9.1875 20.480469-20.480469v-13.652344zm0 0"/><path d="m184.320312 95.585938h-54.613281v20.480468c0 15.082032 12.222657 27.308594 27.304688 27.308594s27.308593-12.226562 27.308593-27.308594zm0 0" fill-rule="evenodd"/><path d="m157.011719 150.199219c-18.816407 0-34.132813-15.3125-34.132813-34.132813v-20.480468c0-3.769532 3.054688-6.824219 6.828125-6.824219h54.613281c3.773438 0 6.828126 3.054687 6.828126 6.824219v20.480468c0 18.820313-15.316407 34.132813-34.136719 34.132813zm-20.476563-47.785157v13.652344c0 11.292969 9.183594 20.480469 20.476563 20.480469s20.480469-9.1875 20.480469-20.480469v-13.652344zm0 0"/><path d="m307.199219 95.585938h-54.613281v20.480468c0 15.082032 12.226562 27.308594 27.308593 27.308594s27.304688-12.226562 27.304688-27.308594zm0 0" fill-rule="evenodd"/><path d="m279.894531 150.199219c-18.820312 0-34.132812-15.3125-34.132812-34.132813v-20.480468c0-3.769532 3.050781-6.824219 6.824219-6.824219h54.613281c3.773437 0 6.828125 3.054687 6.828125 6.824219v20.480468c0 18.820313-15.316406 34.132813-34.132813 34.132813zm-20.480469-47.785157v13.652344c0 11.292969 9.1875 20.480469 20.480469 20.480469s20.480469-9.1875 20.480469-20.480469v-13.652344zm0 0"/></g><path d="m61.441406 95.585938c0 15.082031-12.226562 27.308593-27.308594 27.308593-15.082031 0-27.304687-12.226562-27.304687-27.308593 0-15.082032 12.222656-27.304688 27.304687-27.304688 15.082032 0 27.308594 12.222656 27.308594 27.304688zm0 0" fill="#d7e9ff" fill-rule="evenodd"/><path d="m34.132812 129.71875c-18.820312 0-34.132812-15.3125-34.132812-34.132812 0-18.820313 15.3125-34.132813 34.132812-34.132813 18.820313 0 34.132813 15.3125 34.132813 34.132813 0 18.820312-15.3125 34.132812-34.132813 34.132812zm0-54.613281c-11.292968 0-20.480468 9.1875-20.480468 20.480469 0 11.292968 9.1875 20.480468 20.480468 20.480468 11.292969 0 20.480469-9.1875 20.480469-20.480468 0-11.292969-9.1875-20.480469-20.480469-20.480469zm0 0" fill="#0e65e5"/><path d="m184.320312 95.585938c0 15.082031-12.226562 27.308593-27.308593 27.308593-15.078125 0-27.304688-12.226562-27.304688-27.308593 0-15.082032 12.226563-27.304688 27.304688-27.304688 15.082031 0 27.308593 12.222656 27.308593 27.304688zm0 0" fill="#94c1ff" fill-rule="evenodd"/><path d="m157.011719 129.71875c-18.816407 0-34.132813-15.3125-34.132813-34.132812 0-18.820313 15.316406-34.132813 34.132813-34.132813 18.820312 0 34.136719 15.3125 34.136719 34.132813 0 18.820312-15.316407 34.132812-34.136719 34.132812zm0-54.613281c-11.292969 0-20.476563 9.1875-20.476563 20.480469 0 11.292968 9.183594 20.480468 20.476563 20.480468s20.480469-9.1875 20.480469-20.480468c0-11.292969-9.1875-20.480469-20.480469-20.480469zm0 0" fill="#0e65e5"/><path d="m307.199219 95.585938c0 15.082031-12.226563 27.308593-27.304688 27.308593-15.082031 0-27.308593-12.226562-27.308593-27.308593 0-15.082032 12.226562-27.304688 27.308593-27.304688 15.078125 0 27.304688 12.222656 27.304688 27.304688zm0 0" fill="#2a8ee6" fill-rule="evenodd"/><path d="m279.894531 129.71875c-18.820312 0-34.132812-15.3125-34.132812-34.132812 0-18.820313 15.3125-34.132813 34.132812-34.132813 18.816407 0 34.132813 15.3125 34.132813 34.132813 0 18.820312-15.316406 34.132812-34.132813 34.132812zm0-54.613281c-11.292969 0-20.480469 9.1875-20.480469 20.480469 0 11.292968 9.1875 20.480468 20.480469 20.480468s20.480469-9.1875 20.480469-20.480468c0-11.292969-9.1875-20.480469-20.480469-20.480469zm0 0" fill="#0e65e5"/><path d="m279.894531 218.464844c-3.773437 0-6.828125-3.054688-6.828125-6.824219v-27.308594c0-3.769531 3.054688-6.824219 6.828125-6.824219 3.773438 0 6.824219 3.054688 6.824219 6.824219v27.308594c0 3.769531-3.050781 6.824219-6.824219 6.824219zm0 0" fill="#0e65e5"/><path d="m293.546875 204.8125h-27.308594c-3.773437 0-6.824219-3.054688-6.824219-6.824219 0-3.773437 3.050782-6.828125 6.824219-6.828125h27.308594c3.773437 0 6.828125 3.054688 6.828125 6.828125 0 3.769531-3.054688 6.824219-6.828125 6.824219zm0 0" fill="#0e65e5"/><path d="m81.921875 40.972656c-3.773437 0-6.828125-3.054687-6.828125-6.824218v-27.308594c0-3.769532 3.054688-6.8281252 6.828125-6.8281252s6.824219 3.0585932 6.824219 6.8281252v27.308594c0 3.769531-3.050782 6.824218-6.824219 6.824218zm0 0" fill="#0e65e5"/><path d="m95.574219 27.320312h-27.308594c-3.773437 0-6.824219-3.058593-6.824219-6.828124 0-3.769532 3.050782-6.824219 6.824219-6.824219h27.308594c3.773437 0 6.824219 3.054687 6.824219 6.824219 0 3.769531-3.050782 6.828124-6.824219 6.828124zm0 0" fill="#0e65e5"/></svg>